<svg xmlns="http://www.w3.org/2000/svg" width="1450" height="680" viewBox="0 0 1450 680">
<defs><marker id="arrow" viewBox="0 0 10 10" refX="9" refY="5" markerWidth="7" markerHeight="7" orient="auto"><path d="M0 0 L10 5 L0 10" fill="none" stroke="#805244"/></marker></defs>
<rect width="100%" height="100%" fill="#fffaf7"/>
<style>text{font-family:Arial,"Hiragino Sans",sans-serif;fill:#382f2c;font-size:16px}.title{font-size:24px;font-weight:bold}.legend{font-size:14px}</style>
<text x="24" y="38" class="title">六领域上下文与事件边界</text>
<text x="24" y="67" class="legend">实线：实体/版本引用 · 虚线：事件依赖 · 边上标明基数 · 目标模型，未落地项见阶段表</text>
<polyline points="500,165 320,165" fill="none" stroke="#805244" stroke-width="2" marker-end="url(#arrow)" />
<text x="330" y="145" class="legend">知识点引用 N:M</text>
<polyline points="960,165 780,165" fill="none" stroke="#805244" stroke-width="2" marker-end="url(#arrow)" />
<text x="790" y="145" class="legend">冻结题目/材料版本</text>
<polyline points="180,470 180,235" fill="none" stroke="#805244" stroke-width="2" marker-end="url(#arrow)" />
<text x="195" y="360" class="legend">知识点引用 1:1</text>
<polyline points="640,470 640,235" fill="none" stroke="#805244" stroke-width="2" marker-end="url(#arrow)" />
<text x="655" y="360" class="legend">许可版本引用 N:M</text>
<polyline points="1100,235 1100,470" fill="none" stroke="#805244" stroke-width="2" marker-end="url(#arrow)" stroke-dasharray="7 5"/>
<text x="1110" y="355" class="legend">AnswerSubmitted</text>
<polyline points="320,535 480,535 480,635 1100,635 1100,595" fill="none" stroke="#805244" stroke-width="2" marker-end="url(#arrow)" stroke-dasharray="7 5"/>
<text x="560" y="625" class="legend">MemoryRated / ScheduleChanged</text>
<polyline points="780,535 960,535" fill="none" stroke="#805244" stroke-width="2" marker-end="url(#arrow)" stroke-dasharray="7 5"/>
<text x="785" y="515" class="legend">PublicationChanged</text>
<rect x="40" y="110" width="280" height="125" rx="12" fill="#f1e7df" stroke="#a34f3f"/>
<text x="54" y="137" class="">知识点 KnowledgeItem</text>
<text x="54" y="162" class="">词汇 / 语法 / 活用</text>
<text x="54" y="187" class="">词条可独立保存</text>
<rect x="500" y="110" width="280" height="125" rx="12" fill="#f1e7df" stroke="#a34f3f"/>
<text x="514" y="137" class="">题目 Question / Material</text>
<text x="514" y="162" class="">审核 / 题型策略 / 不可变版本</text>
<text x="514" y="187" class="">多对多知识点关联</text>
<rect x="960" y="110" width="280" height="125" rx="12" fill="#f1e7df" stroke="#a34f3f"/>
<text x="974" y="137" class="">练习 PracticeSet / Attempt</text>
<text x="974" y="162" class="">组题 / 冻结 / 客观答题</text>
<text x="974" y="187" class="">容器管理题序与计时</text>
<rect x="40" y="470" width="280" height="125" rx="12" fill="#f1e7df" stroke="#a34f3f"/>
<text x="54" y="497" class="">SRS ReviewSchedule</text>
<text x="54" y="522" class="">MemoryRated 自评</text>
<text x="54" y="547" class="">排程与记忆记录</text>
<rect x="500" y="470" width="280" height="125" rx="12" fill="#f1e7df" stroke="#a34f3f"/>
<text x="514" y="497" class="">发现分享 Publication</text>
<text x="514" y="522" class="">版本权限 / 许可 / 下架</text>
<text x="514" y="547" class="">不升级题目审核</text>
<rect x="960" y="470" width="280" height="125" rx="12" fill="#f1e7df" stroke="#a34f3f"/>
<text x="974" y="497" class="">统计 ActivityProjection</text>
<text x="974" y="522" class="">按类型去重 / 日期口径</text>
<text x="974" y="547" class="">可重建，不反写答案</text>
</svg>